<svg width="90" height="110" viewBox="0 0 90 110" fill="none" xmlns="http://www.w3.org/2000/svg">
<path d="M54.3299 104.271L54.8682 107.532L55.4066 104.271H56.8419V110H55.8406V107.426L55.4093 110H54.8682H54.3267L53.8953 107.426V110H52.8945V104.271H54.3299Z" fill="#23785A"/>
<path d="M44.7137 37.0333C46.4571 37.8419 48.1823 38.6871 49.8884 39.5665C58.0617 36.5264 66.4166 34.0447 74.9996 32.3368V34.2973C66.4151 36.0219 58.0114 38.5665 49.8492 41.6445C42.4752 44.4247 35.2297 47.6818 28.4093 51.5625H24.5714C26.5804 50.3713 28.576 49.2139 30.6439 48.1166C25.7783 46.2306 20.8515 44.6607 15.7891 43.3463V41.3576C21.662 42.8691 27.3042 44.6902 32.9204 46.9365C35.0647 45.8509 37.2391 44.8198 39.4358 43.8373C31.7913 40.5832 23.9518 38.1027 15.7891 36.2952V34.3261C24.8735 36.3188 33.4039 39.0507 41.8534 42.7787C43.7024 41.9864 45.5666 41.2259 47.443 40.4965C37.3629 35.456 26.8663 31.7866 15.7891 29.3828V27.418C17.93 27.8774 20.0517 28.3694 22.1691 28.9237V6.95028C25.0665 4.63149 27.9666 2.31647 30.8661 0C33.7665 2.31039 36.6716 4.61659 39.5656 6.93436V26.8165H45.294V22.5979H54.1116V18.2156L61.3652 12.5024L65.0138 15.3764L68.6188 18.2221V27.1633C70.7356 26.6693 72.8593 26.2366 74.9996 25.8488V27.804C64.5991 29.713 54.4008 32.9399 44.7137 37.0333ZM56.108 26.9696L59.4696 24.2831V25.2609L56.108 29.1234V30.696C57.5251 30.2352 58.939 29.7891 60.367 29.3598V15.7449L56.108 19.1481V20.2971L59.4696 17.611V18.5888L56.108 22.4512V23.6333L59.4696 20.9472V21.9247L56.108 25.7876V26.9696ZM37.5692 33.9659V7.86862L31.8657 3.24696V31.8567C33.7838 32.5245 35.682 33.2188 37.5692 33.9659ZM39.5656 28.7432V34.7744C40.4905 35.1574 41.4083 35.5519 42.3246 35.9532C46.1849 34.2723 50.1228 32.7428 54.1116 31.3691V24.5249H47.2903V28.7432H39.5656ZM24.1654 9.00225L28.9714 5.16178V6.17416L24.1654 11.4201V12.3971L28.9714 8.49526V9.48161L24.1654 14.7548V15.6747L28.9714 11.8342V12.8365L24.1654 18.0903V19.0107L28.9714 15.1702V16.1613L24.1654 21.4333V22.4336L28.9714 18.5018V19.4695L24.1654 24.7616V25.7056L28.9714 21.8418V22.8057L24.1654 28.0999V29.0195L28.9714 25.1788V26.1414L25.6236 29.8772C27.0459 30.2903 28.4624 30.7271 29.8693 31.187V3.29529L24.1654 7.85357V9.00225ZM62.3634 15.7449V28.7802C63.7768 28.3806 65.197 28.0006 66.6229 27.6454V19.1481L62.3634 15.7449ZM57.2585 51.5625C63.0631 49.3132 68.9382 47.4183 74.9996 45.9211V47.9059C70.8552 48.9407 66.7818 50.1623 62.7547 51.5625H57.2585ZM40.0143 51.5625C51.2463 46.1927 62.7105 42.0968 74.9996 39.6284V41.5913C64.4454 43.7112 54.2734 47.1166 44.5341 51.5625H40.0143Z" fill="#23785A"/>
<path d="M0 74.7352V57.4587H4.45482C5.19597 57.4587 5.83365 57.5487 6.37611 57.7274C6.93819 57.9129 7.3968 58.1933 7.76049 58.5679C8.12208 58.9403 8.3817 59.3969 8.54925 59.9374C8.7108 60.458 8.78642 61.0558 8.78642 61.7305V62.5181C8.78642 62.9985 8.74973 63.4381 8.66873 63.8376C8.58503 64.2483 8.45327 64.618 8.26477 64.9463C8.11294 65.2109 7.92653 65.4452 7.70194 65.6491C7.641 65.7045 7.57722 65.7578 7.51074 65.8085C7.6169 65.8805 7.71782 65.9573 7.81274 66.0389C8.07417 66.2637 8.29247 66.5243 8.46974 66.8168C8.68625 67.1738 8.84077 67.5751 8.93989 68.0144C9.03706 68.4448 9.08183 68.9133 9.08183 69.4141V70.822C9.08183 71.525 8.98795 72.1579 8.79705 72.7139C8.6039 73.2773 8.31238 73.7577 7.91995 74.1474C7.53066 74.5343 7.04779 74.8285 6.47029 75.0242C5.9163 75.2118 5.27802 75.3083 4.55304 75.3083H0V74.7352ZM3.10159 60.2993V64.546H3.98752C4.31647 64.546 4.59916 64.5225 4.83078 64.4668C5.03621 64.4178 5.20121 64.3435 5.32279 64.2381C5.44092 64.1342 5.533 63.9871 5.59783 63.7879C5.6718 63.5597 5.70968 63.2672 5.70968 62.8996V61.9214C5.70968 61.6032 5.68378 61.3307 5.62838 61.1051C5.58032 60.9057 5.50845 60.7464 5.41038 60.6274C5.32413 60.5234 5.20824 60.4446 5.06002 60.3913C4.89037 60.3302 4.67312 60.2993 4.40586 60.2993H3.10159ZM3.10159 67.3865V72.4677H4.55304C4.82944 72.4677 5.06241 72.4353 5.25167 72.3702C5.41921 72.3124 5.55366 72.2274 5.65533 72.1154C5.76598 71.9914 5.85057 71.8256 5.90867 71.617C5.9732 71.386 6.00464 71.1054 6.00464 70.7741V69.2948C6.00464 68.8912 5.96676 68.5621 5.88935 68.2998C5.82033 68.065 5.72076 67.8871 5.5902 67.7593C5.46218 67.6342 5.28984 67.5446 5.07439 67.4843C4.83123 67.4168 4.53402 67.3865 4.18396 67.3865H3.10159ZM15.369 74.7352V57.4587H18.4707V75.3083H15.369V74.7352ZM28.1419 72.4677H33.7171V75.3083H24.7084V72.9501L30.3105 60.2993H24.9792V57.4587H33.7661V59.8189L28.1419 72.4677ZM46.1593 74.9073L42.909 64.9428V75.3083H40.0035V57.4587H43.4612L46.4267 66.4411V57.4587H49.3073V75.3083H46.2892L46.1593 74.9073ZM55.8157 74.7352V57.4587H58.9175V75.3083H55.8157V74.7352ZM71.5567 74.9073L68.3067 64.9428V75.3083H65.4013V57.4587H68.8586L71.8242 66.4411V57.4587H74.7048V75.3083H71.6872L71.5567 74.9073ZM82.2198 58.569C82.6035 58.1522 83.0804 57.8267 83.6526 57.6082C84.1926 57.4016 84.8148 57.2919 85.5205 57.2919C86.2308 57.2919 86.8569 57.4016 87.4005 57.6072C87.9746 57.8249 88.4533 58.1491 88.8384 58.5649C89.2313 58.9913 89.5221 59.5049 89.7137 60.0917C89.9057 60.6801 90 61.3432 90 62.0649V64.0693H86.9963V61.9691C86.9963 61.6324 86.9628 61.3358 86.8933 61.0851C86.8306 60.8585 86.7403 60.6709 86.6204 60.5279C86.5153 60.4022 86.3798 60.3047 86.2133 60.2387C86.0399 60.1685 85.8258 60.1325 85.5699 60.1325C85.3197 60.1325 85.1081 60.1691 84.9343 60.2387C84.7685 60.3051 84.632 60.4045 84.5244 60.533C84.4035 60.677 84.3113 60.8656 84.2475 61.0935C84.1779 61.3432 84.1431 61.6368 84.1431 61.9691V70.7978C84.1431 71.1301 84.1779 71.4241 84.2475 71.6738C84.3113 71.9017 84.4035 72.0903 84.5244 72.2343C84.632 72.3628 84.7682 72.4619 84.9343 72.5285C85.1081 72.5981 85.3197 72.6348 85.5699 72.6348C85.8258 72.6348 86.0399 72.5988 86.2133 72.5298C86.3798 72.4626 86.5153 72.3648 86.6204 72.2393C86.7403 72.0961 86.831 71.9088 86.8933 71.6822C86.9628 71.4315 86.9963 71.1346 86.9963 70.7978V68.0306H85.2248V65.214H90V70.7027C90 71.4246 89.9057 72.0882 89.7137 72.6766C89.5213 73.2647 89.2309 73.7788 88.8384 74.2024C88.4533 74.6179 87.9746 74.9423 87.4005 75.1598C86.8569 75.3657 86.2308 75.475 85.5205 75.475C84.8148 75.475 84.1929 75.3654 83.6522 75.1591C83.0807 74.9406 82.6035 74.6151 82.2198 74.1983C81.8315 73.776 81.5425 73.2624 81.3512 72.6736C81.1595 72.0862 81.0657 71.4236 81.0657 70.7027V62.0649C81.0657 61.3439 81.1595 60.6811 81.3509 60.0937C81.5425 59.5049 81.8315 58.9916 82.2198 58.569ZM10.4476 80.8834H12.9341V94.2225C12.9341 94.5592 12.9677 94.8558 13.0367 95.1065C13.0994 95.3331 13.1902 95.5207 13.3101 95.6641C13.4158 95.7908 13.5512 95.8887 13.7169 95.9546C13.8931 96.0228 14.1073 96.0592 14.3606 96.0592C14.6076 96.0592 14.8164 96.0228 14.9873 95.9541C15.151 95.8882 15.2849 95.7901 15.3894 95.6641C15.5088 95.5196 15.5988 95.3321 15.6608 95.1062C15.7295 94.8562 15.7628 94.5599 15.7628 94.2225V80.8834H18.7419V94.1271C18.7419 94.8504 18.6483 95.5173 18.4574 96.1098C18.2674 96.6989 17.9798 97.215 17.5898 97.6413C17.2057 98.0612 16.7299 98.3884 16.1594 98.6069C15.6195 98.8135 14.9962 98.9238 14.2869 98.9238C13.5847 98.9238 12.965 98.813 12.426 98.6049C11.8552 98.3843 11.3812 98.0576 11.0016 97.6396C10.6149 97.2122 10.3282 96.6966 10.1393 96.108C9.94934 95.5156 9.85621 94.8497 9.85621 94.1271V80.8834H10.4476ZM30.7139 98.7329H28.2278V92.2612L24.3601 80.8834H27.6038L29.8564 87.7794L32.1308 80.8834H35.1975L31.3053 92.2554V98.7329H30.7139ZM48.9138 96.4654V98.7329H40.8896V80.8834H43.9917V95.8923H48.9138V96.4654ZM61.8815 98.267L61.3089 95.3685H57.9279L57.2636 98.7329H54.2899L55.0313 94.989C55.9538 90.3306 56.8764 85.6727 57.7528 81.1932L57.8134 80.8834H61.57L63.322 89.7362C63.857 92.4453 64.4125 95.2631 65.0049 98.2834L65.0933 98.7329H61.973L61.8815 98.267ZM60.8082 92.623L59.5886 86.5746L58.3996 92.623H60.8082ZM71.0124 98.1598V80.8834H75.4425C76.1916 80.8834 76.8402 80.9798 77.3942 81.1688C77.9636 81.3631 78.4324 81.6569 78.8073 82.0449C79.1788 82.4288 79.4474 82.8987 79.6223 83.4501C79.7919 83.9855 79.8729 84.5946 79.8729 85.2745V86.6347C79.8729 87.1359 79.8256 87.5967 79.7284 88.0165C79.6293 88.4452 79.4783 88.8279 79.2733 89.1628C79.1069 89.435 78.9062 89.6751 78.6706 89.883C78.6003 89.9453 78.5263 90.0046 78.4496 90.0611C78.542 90.1276 78.6301 90.198 78.713 90.2723C78.9587 90.4946 79.1626 90.7474 79.3273 91.0297C79.5295 91.3776 79.6732 91.7669 79.7653 92.194C79.8557 92.6138 79.8978 93.0684 79.8978 93.554V96.1553C79.8978 96.3516 79.8991 96.5348 79.9048 96.6771C79.9111 96.8406 79.9229 96.9975 79.9433 97.1467C79.9622 97.2857 79.9891 97.4195 80.027 97.5458C80.0628 97.6647 80.1098 97.78 80.1704 97.8887L80.6413 98.7329H77.3265L77.1689 98.3925C77.103 98.2508 77.0465 98.1136 77 97.9689C76.9527 97.8218 76.9131 97.6631 76.8818 97.4789C76.8525 97.3063 76.8311 97.1141 76.8167 96.8908C76.8026 96.6636 76.7957 96.4145 76.7957 96.1315V93.5067C76.7957 93.1034 76.7508 92.7773 76.6643 92.5188C76.5858 92.285 76.4734 92.107 76.3297 91.9773C76.185 91.847 75.9965 91.7547 75.7691 91.6939C75.5199 91.6275 75.2206 91.5981 74.8765 91.5981H74.1144V98.7329H71.0124V98.1598ZM74.1144 83.7239V88.7575H74.9508C75.2831 88.7575 75.5746 88.7341 75.8174 88.6766C76.0368 88.6249 76.2186 88.5458 76.3574 88.431C76.4905 88.3209 76.5956 88.1666 76.6688 87.9592C76.7519 87.7232 76.7957 87.421 76.7957 87.0398V85.4413C76.7957 85.1172 76.7673 84.8372 76.7074 84.6045C76.6531 84.3922 76.5736 84.2207 76.4656 84.0912C76.3693 83.975 76.241 83.886 76.0795 83.8255C75.8993 83.7578 75.6716 83.7239 75.3934 83.7239H74.1144Z" fill="#23785A"/>
<path d="M20.8197 109.939H19.3418V104.332H20.8197C21.28 104.332 21.6272 104.46 21.8629 104.704C22.1014 104.951 22.2196 105.312 22.2196 105.776V108.495C22.2196 108.959 22.1014 109.32 21.8629 109.567C21.6272 109.811 21.28 109.939 20.8197 109.939ZM21.0386 105.409C20.9883 105.354 20.9079 105.33 20.8043 105.33H20.4364V108.941H20.8043C20.9079 108.941 20.9883 108.917 21.0391 108.862C21.0947 108.801 21.125 108.695 21.125 108.534V105.738C21.125 105.576 21.0942 105.47 21.0386 105.409ZM26.8148 105.33H25.446V106.598H26.627V107.596H25.446V108.941H26.9323V109.939H24.3514V104.332H26.9323V105.33H26.8148ZM28.9383 104.332H29.9076L30.4632 108.043L31.0193 104.332H32.0468C31.754 106.201 31.4624 108.071 31.1662 109.939H29.6828L28.8015 104.332H28.9383ZM36.4745 105.33H35.1054V106.598H36.2864V107.596H35.1054V108.941H36.5917V109.939H34.0108V104.332H36.5917V105.33H36.4745ZM41.1004 109.939H38.7073V104.332H39.8019V108.941H41.2175V109.939H41.1004ZM44.2915 105.352C44.2339 105.415 44.2013 105.522 44.2013 105.684V108.587C44.2013 108.749 44.2339 108.856 44.2915 108.92C44.3443 108.977 44.4268 109.002 44.53 109.002C44.6342 109.002 44.7164 108.977 44.7685 108.92C44.8262 108.856 44.8588 108.749 44.8588 108.587V105.684C44.8588 105.522 44.8262 105.415 44.7685 105.352C44.7164 105.294 44.6342 105.269 44.53 105.269C44.4268 105.269 44.3443 105.294 44.2915 105.352ZM43.4785 109.614C43.2343 109.362 43.1067 108.996 43.1067 108.534V105.738C43.1067 105.276 43.2343 104.91 43.4785 104.658C43.7219 104.406 44.076 104.271 44.53 104.271C44.9843 104.271 45.3385 104.406 45.5819 104.657C45.8256 104.91 45.9534 105.276 45.9534 105.738V108.534C45.9534 108.996 45.8256 109.362 45.5819 109.614C45.3385 109.866 44.9843 110 44.53 110C44.076 110 43.7219 109.866 43.4785 109.614ZM48.2103 104.332H49.4773C49.9376 104.332 50.2844 104.46 50.5202 104.704C50.7587 104.951 50.8772 105.312 50.8772 105.776V106.475C50.8772 106.939 50.7587 107.3 50.5202 107.547C50.2844 107.791 49.9376 107.919 49.4773 107.919H49.1877V109.939H48.0933V104.332H48.2103ZM49.7036 105.402C49.6574 105.351 49.5806 105.33 49.4773 105.33H49.1877V106.921H49.4773C49.5806 106.921 49.6574 106.901 49.7036 106.85C49.7554 106.793 49.7823 106.691 49.7823 106.529V105.723C49.7823 105.561 49.7554 105.458 49.7036 105.402ZM61.4126 105.33H60.0438V106.598H61.2248V107.596H60.0438V108.941H61.5297V109.939H58.9492V104.332H61.5297V105.33H61.4126ZM66.4847 109.939H65.5111L64.6471 106.797V109.939H63.6381V104.332H64.924L65.6011 106.797V104.332H66.602V109.939H66.4847ZM69.453 105.33H68.5536V104.332H71.4471V105.33H70.5476V109.939H69.453V105.33Z" fill="#23785A"/>
</svg>
