<svg xmlns="http://www.w3.org/2000/svg" width="72" height="72" viewBox="0 0 72 72">
    <g fill="none" fill-rule="evenodd">
        <g>
            <g transform="translate(-100 -944) translate(100 944)">
                <rect width="72" height="72" fill="#007551" rx="10"/>
                <g fill="#FFF">
                    <path d="M30.656 11.833c-1.037.197-2.096.437-3.165.715-1.09.283-2.194.606-3.298.963-1.134.367-2.267.77-3.387 1.204-1.122.434-2.233.901-3.321 1.394l-.111.05-.285-.632.11-.05c1.093-.496 2.217-.968 3.357-1.41 1.133-.438 2.28-.846 3.425-1.217 1.13-.365 2.262-.696 3.383-.986 1.1-.284 2.186-.528 3.247-.728l.145-.027v.705l-.1.019zM6.551 14.774c.924.21 1.838.442 2.742.698.91.256 1.81.537 2.703.84.891.303 1.778.63 2.659.983.88.352 1.754.728 2.618 1.126l.11.051-.29.63-.11-.05c-.856-.395-1.719-.766-2.587-1.114-.866-.345-1.74-.669-2.623-.969-.868-.295-1.742-.567-2.621-.817-.88-.25-1.765-.476-2.655-.68l-.094-.021v-.71l.148.033zM6.555 17.794c1.191.317 2.365.675 3.525 1.07 1.16.397 2.307.832 3.443 1.306l.136.057-.39.589-.093-.039c-1.092-.455-2.195-.873-3.309-1.253-1.113-.38-2.238-.723-3.374-1.029l-.09-.024v-.717l.152.04z" transform="translate(17 13)"/>
                    <path d="M6.55 11.816c1.217.27 2.42.581 3.608.933 1.19.352 2.368.745 3.533 1.18 1.168.435 2.321.91 3.46 1.425 1.14.517 2.269 1.075 3.385 1.674l.107.058-.329.61-.107-.057c-1.102-.591-2.216-1.142-3.344-1.653-1.128-.511-2.266-.98-3.414-1.408-1.134-.423-2.283-.807-3.443-1.152-1.159-.344-2.328-.648-3.508-.913l-.095-.021v-.71l.148.034z" transform="translate(17 13)"/>
                    <path d="M30.658 14.615c-1.605.335-3.295.773-5.012 1.294-1.737.528-3.506 1.143-5.248 1.823-1.602.625-3.177 1.306-4.678 2.024-1.464.7-2.862 1.439-4.152 2.2l-.03.017h-1.34l.368-.225c1.368-.84 2.873-1.656 4.462-2.43 1.635-.795 3.36-1.547 5.116-2.232 1.77-.692 3.574-1.317 5.351-1.855 1.754-.53 3.479-.976 5.114-1.314l.147-.03v.708l-.098.02zM30.658 17.737c-1.107.232-2.217.504-3.322.812-1.114.31-2.225.658-3.328 1.042-.981.34-1.955.71-2.917 1.105-.96.394-1.914.817-2.857 1.265l-.025.012h-1.578c1.248-.617 2.49-1.204 3.774-1.743 1.11-.466 2.237-.898 3.375-1.294 1.131-.393 2.272-.75 3.417-1.068 1.137-.316 2.276-.593 3.412-.829l.147-.03v.708l-.098.02zM30.664 20.446c-.496.128-.989.263-1.476.404-.492.142-.983.292-1.474.45-.322.103-.648.21-.976.323-.328.112-.652.226-.97.342l-.022.008H23.82c.715-.287 1.428-.561 2.155-.819.504-.178 1.013-.35 1.527-.515.509-.163 1.026-.32 1.55-.472.527-.152 1.045-.293 1.552-.422l.152-.039v.717l-.092.023zM25.531 5.942L25.531 13.058 24.835 13.058 24.835 5.82 25.531 5.82zM12.92.736L12.92 13.973 12.224 13.973 12.224.614 12.92.614z" transform="translate(17 13)"/>
                    <path d="M27.422 12.156V8.132l-2.24-1.852-2.238 1.852v2.267h-3.646v1.806h-3.89V3.304L12.588.938l-2.851 2.36v9.815l-.696-.064V2.971L12.572.05c1.178.972 2.356 1.942 3.532 2.915v8.546h2.498V9.704h3.646v-1.91L25.183 5.4c.979.797 1.957 1.596 2.934 2.395v4.482h-.695v-.122z" transform="translate(17 13)"/>
                    <path d="M9.53 4.888l-.309-.302.302-.453 2.2-1.82v.271L9.614 4.97l-.084-.082zm.32 8.3l-.675-.021.352-.468 2.197-1.818v.251l-1.802 2.082-.071-.027zm-.321-1.16l-.41-.407 2.605-2.168v.25l-2.111 2.408-.084-.083zm-.005-1.433l-.359-.403 2.559-2.167v.25L9.607 10.69l-.083-.094zm.014-1.415l-.37-.298.359-.467 2.197-1.818v.262L9.62 9.247l-.083-.067zm-.015-1.443l-.28-.322.28-.426 2.2-1.82v.267L9.607 7.833l-.083-.096zm.001-1.426l-.37-.41 2.57-2.16V4L9.608 6.404l-.084-.093zM22.37 7.989L22.944 7.989 22.944 13.764 22.248 14.051 22.248 7.989zM15.982 15.293L15.408 15.293 15.408 11.51 16.104 11.51 16.104 15.293z" transform="translate(17 13)"/>
                    <path d="M22.47 12.973v-.933l1.864-1.542v.258l-1.864 2.217zm0-2.857v-.932l1.864-1.542v.257l-1.864 2.217zm0 1.429v-.933l1.864-1.542v.257l-1.864 2.218zM.01 31.867v-7.209h1.683c.58 0 .986.141 1.25.422.265.28.381.693.381 1.239v.336c0 .39-.057.709-.195.957-.11.197-.268.348-.488.454.257.113.445.284.575.504.16.273.23.621.23 1.027v.6c0 .565-.141 1.007-.434 1.307-.285.291-.709.446-1.279.446H.01v-.083zm.96-6.32v2.135h.53c.295 0 .517-.046.66-.174.142-.127.214-.344.214-.69V26.4c0-.296-.048-.514-.16-.653-.108-.134-.283-.2-.542-.2H.971zm0 3.023v2.492h.763c.266 0 .457-.068.579-.207.125-.144.185-.368.185-.678v-.631c0-.374-.072-.62-.22-.77-.146-.147-.377-.206-.696-.206H.97zm5.404 3.297v-7.209h.96v7.292h-.96v-.083zm4.88-.805h2.392v.888H10.24v-.812l2.403-5.592h-2.29v-.888h3.313v.812l-2.412 5.592zm7.86.83l-1.662-5.252v5.31h-.879v-7.292h1.152l1.507 4.706v-4.706h.869v7.292h-.969l-.018-.058zm4.006-.025v-7.209h.96v7.292h-.96v-.083zm6.51.025l-1.663-5.252v5.31h-.879v-7.292h1.152l1.508 4.706v-4.706h.868v7.292h-.968l-.019-.058zm4.38-6.815c.28-.312.693-.49 1.246-.49.558 0 .973.177 1.254.49.296.33.439.808.439 1.384v.694h-.92v-.734c0-.31-.06-.556-.192-.717-.12-.148-.304-.229-.56-.229-.252 0-.437.082-.559.23-.13.162-.194.407-.194.716v3.766c0 .31.063.553.194.715.122.15.307.23.559.23.256 0 .44-.08.56-.228.131-.161.192-.406.192-.717v-1.342h-.733v-.878h1.653v2.18c0 .576-.143 1.055-.44 1.384-.28.313-.695.49-1.253.49-.553 0-.966-.178-1.245-.49-.295-.33-.437-.808-.437-1.384V26.46c0-.576.142-1.054.437-1.384zM4.175 34.652h.867v5.529c0 .31.062.556.193.717.12.148.304.229.56.229.25 0 .433-.082.552-.23.13-.161.19-.406.19-.716v-5.53h.91v5.49c0 .577-.14 1.059-.436 1.392-.278.313-.69.492-1.246.492-.553 0-.962-.18-1.24-.493-.293-.333-.433-.814-.433-1.392v-5.488h.083zm8.39 7.291h-.867V39.32l-1.539-4.667h1l1.05 3.313 1.061-3.313h.928l-1.55 4.666v2.625h-.082zm7.374-.805v.805H16.94v-7.291h.96v6.403h2.038v.083zm5.69.738l-.262-1.368h-1.667l-.276 1.435h-.901c.467-2.43.935-4.86 1.397-7.291h1.288c.467 2.43.934 4.86 1.396 7.291h-.962l-.013-.067zm-.407-2.215l-.703-3.596-.686 3.596h1.39zm4.19 2.2v-7.21h1.673c.584 0 1.001.153 1.275.445.273.291.397.717.397 1.267v.58c0 .407-.073.74-.225.997-.122.204-.292.36-.515.468.24.111.415.277.536.49.15.266.214.603.214.998v1.11c0 .156.003.306.021.443.018.135.051.26.112.373l.066.121h-.997l-.022-.049c-.048-.107-.084-.21-.107-.35-.022-.136-.033-.306-.033-.548v-1.12c0-.378-.085-.623-.245-.771-.16-.148-.4-.206-.711-.206h-.478v3.044h-.96v-.082zm.96-6.32v2.47h.51c.296 0 .531-.046.687-.178.154-.132.238-.356.238-.716v-.682c0-.302-.053-.53-.173-.678-.115-.143-.3-.217-.57-.217h-.691zM7.84 46.915h.564c.358 0 .533-.198.533-.561v-1.148c0-.363-.175-.56-.533-.56H7.84v2.269zm.558-1.945c.114 0 .182.058.182.22v1.18c0 .162-.068.22-.182.22h-.201v-1.62h.201zm1.877 0h.617v-.324h-.974v2.269h.974v-.324h-.617v-.665h.49v-.324h-.49v-.632zm1.858-.324h-.36l.35 2.269h.532l.35-2.27h-.327l-.273 1.852-.272-1.851zm2.15.324h.616v-.324h-.974v2.269h.974v-.324h-.617v-.665h.49v-.324h-.49v-.632zm1.59 1.945h.945v-.324h-.587v-1.945h-.357v2.269zm2.183-1.747c0-.162.071-.224.185-.224.113 0 .184.062.184.224v1.225c0 .162-.07.224-.184.224-.114 0-.185-.062-.185-.224v-1.225zm-.357 1.202c0 .363.191.57.542.57.35 0 .541-.207.541-.57v-1.18c0-.363-.191-.57-.541-.57-.35 0-.542.207-.542.57v1.18zm2.594-1.724h-.526v2.269h.357v-.853h.169c.357 0 .532-.198.532-.56v-.296c0-.363-.175-.56-.532-.56zm0 .324c.113 0 .175.052.175.214v.34c0 .162-.062.214-.175.214h-.169v-.768h.169zm1.961-.324h-.496v2.269h.311V45.31l.266 1.605h.338l.246-1.627v1.627h.338v-2.27h-.497l-.243 1.612-.263-1.611zm2.374.324h.616v-.324h-.973v2.269h.973v-.324h-.616v-.665h.49v-.324h-.49v-.632zm2.354 1.945h.366v-2.27h-.318v1.359l-.366-1.358h-.448v2.269h.321V45.27l.445 1.644zm1.273-1.945h.373v1.945h.357V44.97h.373v-.324h-1.103v.324z" transform="translate(17 13)"/>
                </g>
            </g>
        </g>
    </g>
</svg>
