<svg xmlns="http://www.w3.org/2000/svg" width="23" height="23" viewBox="0 0 23 23">
    <g fill="none" fill-rule="evenodd">
        <g fill="#FFF" fill-rule="nonzero">
            <g>
                <g>
                    <path d="M6.389 0C2.86 0 0 2.86 0 6.389V16.61C0 20.14 2.86 23 6.389 23H16.61C20.14 23 23 20.14 23 16.611V6.39C23 2.86 20.14 0 16.611 0H6.39zm12.778 2.556c.702 0 1.277.575 1.277 1.277 0 .703-.575 1.278-1.277 1.278-.703 0-1.278-.575-1.278-1.278 0-.702.575-1.277 1.278-1.277zM11.5 5.11c3.528 0 6.389 2.86 6.389 6.389 0 3.528-2.86 6.389-6.389 6.389-3.528 0-6.389-2.86-6.389-6.389 0-3.528 2.86-6.389 6.389-6.389zm0 2.556c-1.37 0-2.636.731-3.32 1.918-.685 1.187-.684 2.648.001 3.835.685 1.186 1.952 1.916 3.322 1.916 2.117 0 3.834-1.718 3.833-3.836 0-2.118-1.718-3.834-3.836-3.833z" transform="translate(-957 -973) translate(849 973) translate(108)"/>
                </g>
            </g>
        </g>
    </g>
</svg>
