<svg xmlns="http://www.w3.org/2000/svg" xmlns:xlink="http://www.w3.org/1999/xlink" width="245" height="72" viewBox="0 0 245 72">
    <defs>
        <path id="5rpb01zbza" d="M0 0.263L188.878 0.263 188.878 22.4 0 22.4z"/>
        <path id="i7ihwfi5bc" d="M0 35.308L188.878 35.308 188.878 0.429 0 0.429z"/>
    </defs>
    <g fill="none" fill-rule="evenodd">
        <g>
            <g>
                <g transform="translate(-192 -944) translate(100 944) translate(92)">
                    <rect width="245" height="72" fill="#FFF" rx="10"/>
                    <g transform="translate(28 18)">
                        <g transform="translate(0 .166)">
                            <mask id="8u7qynr3ob" fill="#fff">
                                <use xlink:href="#5rpb01zbza"/>
                            </mask>
                            <path fill="#006CB5" d="M170.524 12.5h14.573V6.742c0-1.483-1.215-2.697-2.698-2.697h-9.178c-1.482 0-2.697 1.214-2.697 2.697V12.5zm-27.23-8.455V12.5h11.876c1.483 0 2.697-1.215 2.697-2.698v-3.06c0-1.483-1.215-2.697-2.697-2.697h-11.876zM115.76 12.5h14.573V6.742c0-1.483-1.215-2.697-2.698-2.697h-9.177c-1.483 0-2.698 1.214-2.698 2.697V12.5zm-81.383 0H48.95V6.742c0-1.483-1.215-2.697-2.697-2.697h-9.178c-1.483 0-2.698 1.214-2.698 2.697V12.5zm150.72 3.781h-14.572V22.4h-3.782V6.742c0-3.527 2.94-6.479 6.48-6.479h9.177c3.546 0 6.384 2.96 6.479 6.48V22.4h-3.781V16.28zm-32.248 0h-9.554V22.4h-3.781V.263h15.657c3.495 0 6.479 2.969 6.479 6.48v3.059c0 2.609-1.61 4.924-3.965 5.949l3.965 3.966V22.4h-2.683l-6.118-6.119zm-22.516 0H115.76V22.4h-3.782V6.742c0-3.527 2.94-6.479 6.48-6.479h9.177c3.546 0 6.384 2.96 6.48 6.48V22.4h-3.782V16.28zm-39.424 2.337h16.282V22.4H85.054v-3.581l16.398-14.774H85.054V.263h22.136v3.58L90.908 18.619zM61.912 6.5v15.9H58.13V.263h3.576L76.485 15.93V.263h3.781V22.4H76.69L61.912 6.5zM48.949 16.28H34.376V22.4h-3.782V6.742c0-3.527 2.94-6.479 6.48-6.479h9.178c3.546 0 6.384 2.96 6.479 6.48V22.4h-3.782V16.28zM3.782 7.256V22.4H0V.263h3.61l8.988 12.973L21.586.263h3.61V22.4h-3.782V7.256l-8.816 12.725L3.782 7.256z" mask="url(#8u7qynr3ob)"/>
                        </g>
                        <mask id="6ymbg6byld" fill="#fff">
                            <use xlink:href="#i7ihwfi5bc"/>
                        </mask>
                        <path fill="#006CB5" d="M149.778 35.308h.746v-5.225h-.746v5.225zm-1.646-1.492c0-.83-.709-1.493-1.492-1.493h-2.24c-.41 0-.746-.336-.746-.747s.335-.747.746-.747h2.24c.41 0 .746.336.746.747h.746c-.022-.829-.694-1.493-1.492-1.493h-2.24c-.836 0-1.493.701-1.493 1.493 0 .843.694 1.493 1.493 1.493h2.24c.41 0 .746.336.746.747 0 .41-.336.746-.746.746h-2.24c-.41 0-.746-.336-.746-.746h-.747c.022.843.68 1.492 1.493 1.492h2.24c.836 0 1.492-.701 1.492-1.492zm-6.87-2.24c-.023-.829-.695-1.493-1.493-1.493h-2.24c-.836 0-1.493.701-1.493 1.493v3.732h.746v-1.492h3.733v1.492h.747v-3.732zm-1.493-.747c.41 0 .746.336.746.747v1.493h-3.733v-1.493c0-.411.336-.747.747-.747h2.24zm-6.2 2.987c0 .41-.335.746-.746.746h-2.24c-.41 0-.746-.336-.746-.746v-3.733h-.746v3.733c0 .843.694 1.492 1.493 1.492h2.24c.835 0 1.492-.701 1.492-1.492v-3.733h-.746v3.733zm-9.185.835l2.24-3.232v3.89h.747v-5.226h-.747l-2.24 3.233-2.239-3.233h-.747v5.225h.747V31.42l2.24 3.232zm-8.438-.09c-.41 0-.746-.335-.746-.745h-.747c.022.843.679 1.492 1.493 1.492h2.24c.836 0 1.493-.701 1.493-1.492v-3.733h-.747v3.733c0 .41-.336.746-.747.746h-2.239zm-2.99-2.985c-.021-.829-.693-1.493-1.492-1.493h-2.24c-.836 0-1.492.701-1.492 1.493v3.732h.746v-1.492h3.733v1.492h.746v-3.732zm-1.492-.747c.41 0 .747.336.747.747v1.493h-3.733v-1.493c0-.411.336-.747.746-.747h2.24zm-8.439 3.822l2.24-3.232v3.89h.746v-5.226h-.746l-2.24 3.233-2.24-3.233h-.746v5.225h.747V31.42l2.24 3.232zm-7.468-3.449v-1.12h-.746v.814l-1.866 2.053-1.867-2.053v-.813h-.746v1.12l2.24 2.463v1.642h.746v-1.642l2.24-2.464zm-6.497.374c0-.814-.702-1.493-1.493-1.493h-2.24c-.82 0-1.493.672-1.493 1.493v2.24c0 .828.664 1.492 1.493 1.492h2.24c.82 0 1.493-.671 1.493-1.492v-2.24zm-.747 2.24c0 .41-.336.746-.746.746h-2.24c-.41 0-.746-.336-.746-.746v-2.24c0-.411.336-.747.746-.747h2.24c.41 0 .746.336.746.747v2.24zm-9.857.746c-.41 0-.747-.336-.747-.746h-.746c.023.843.68 1.492 1.493 1.492h2.24c.836 0 1.493-.701 1.493-1.492v-3.733h-.747v3.733c0 .41-.336.746-.746.746h-2.24zm-6.124-1.493h3.36v-.746h-3.36v.746zm-1.421 2.24v-.53l-1.038-1.038c.62-.209 1.038-.784 1.038-1.418v-.747c0-.829-.71-1.493-1.493-1.493h-3.733v5.225h.747v-1.492h2.456l1.493 1.492h.53zm-.747-2.986c0 .41-.336.746-.746.746h-2.986v-2.24h2.986c.41 0 .746.336.746.747v.747zm-6.199-.747c-.022-.829-.694-1.493-1.493-1.493h-2.24c-.835 0-1.492.701-1.492 1.493v3.732h.746v-1.492h3.733v1.492h.746v-3.732zm-1.493-.747c.411 0 .747.336.747.747v1.493h-3.733v-1.493c0-.411.336-.747.747-.747h2.24zm-5.377 4.48v-.53l-1.038-1.038c.62-.209 1.038-.784 1.038-1.418v-.747c0-.829-.71-1.493-1.493-1.493h-3.733v5.225h.746v-1.492h2.456l1.494 1.492h.53zm-.747-2.986c0 .41-.336.746-.746.746h-2.987v-2.24h2.987c.41 0 .746.336.746.747v.747zm-6.945 1.493c0 .41-.337.746-.747.746h-2.24c-.41 0-.746-.336-.746-.746v-3.733h-.747v3.733c0 .843.695 1.492 1.493 1.492h2.24c.836 0 1.493-.701 1.493-1.492v-3.733h-.746v3.733zm-5.826-2.987v-.746H38.35v.746h2.24v4.48h.746v-4.48h2.24z" mask="url(#6ymbg6byld)"/>
                    </g>
                </g>
            </g>
        </g>
    </g>
</svg>
