<svg xmlns="http://www.w3.org/2000/svg" width="58" height="58" viewBox="0 0 58 58">
    <g fill="none" fill-rule="evenodd">
        <g>
            <g>
                <g>
                    <path fill="#0C7AD6" d="M49.503 8.49C38.176-2.832 19.814-2.83 8.491 8.498c-11.324 11.327-11.32 29.689.006 41.012 11.327 11.324 29.689 11.32 41.012-.006 5.438-5.44 8.493-12.817 8.491-20.51-.002-7.69-3.058-15.065-8.497-20.502z" transform="translate(-1762 -54) translate(1549 54) translate(213)"/>
                    <path fill="#FFF" fill-rule="nonzero" d="M40.954 38.06l-.003.003v-.007l-1.166 1.157c-1.507 1.527-3.702 2.154-5.788 1.656-2.102-.562-4.1-1.458-5.919-2.652-1.69-1.08-3.255-2.342-4.669-3.765-1.3-1.29-2.469-2.709-3.488-4.232-1.115-1.639-1.997-3.424-2.622-5.305-.716-2.21-.123-4.635 1.533-6.264l1.365-1.364c.38-.381.996-.383 1.377-.003l.003.003 4.309 4.308c.38.38.382.996.003 1.377l-.003.003-2.53 2.53c-.726.718-.818 1.86-.215 2.684.915 1.256 1.928 2.437 3.028 3.534 1.228 1.233 2.562 2.354 3.987 3.35.824.575 1.94.478 2.653-.23l2.445-2.484c.38-.38.996-.382 1.377-.003l.003.003 4.317 4.324c.38.38.382.996.003 1.377z" transform="translate(-1762 -54) translate(1549 54) translate(213)"/>
                </g>
            </g>
        </g>
    </g>
</svg>
