<svg xmlns="http://www.w3.org/2000/svg" width="28" height="23" viewBox="0 0 28 23">
    <g fill="none" fill-rule="evenodd">
        <g fill="#FFF">
            <g>
                <path d="M21.18 22.746c.37.262.85.328 1.275.167.427-.163.74-.526.834-.966 1.002-4.697 3.43-16.585 4.342-20.857.069-.322-.047-.656-.3-.872-.253-.215-.605-.277-.918-.16C21.582 1.841 6.705 7.413.624 9.66c-.386.143-.637.513-.624.919.014.407.288.76.683.878 2.727.815 6.307 1.947 6.307 1.947s1.673 5.043 2.545 7.608c.11.322.361.575.694.662.332.086.687-.005.935-.238l3.567-3.361s4.115 3.011 6.449 4.67zM8.495 12.767l1.935 6.369.43-4.033L22.594 4.539c.124-.113.141-.301.038-.433-.103-.133-.292-.164-.434-.074L8.495 12.767z" transform="translate(-849 -973) translate(849 973)"/>
            </g>
        </g>
    </g>
</svg>
