<?xml version="1.0" encoding="UTF-8"?>
<svg width="447px" height="197px" viewBox="0 0 447 197" version="1.1" xmlns="http://www.w3.org/2000/svg" xmlns:xlink="http://www.w3.org/1999/xlink">
    <title>text_220</title>
    <defs>
        <linearGradient x1="50%" y1="10.3727283%" x2="50%" y2="106.48641%" id="linearGradient-1">
            <stop stop-color="#1D91F1" offset="0%"></stop>
            <stop stop-color="#00549A" offset="100%"></stop>
        </linearGradient>
        <path d="M132.25,188 L132.25,150.75 L67.5,150.75 L101.75,117.75 C118.5,101.75 130.5,87 130.5,61.25 C130.5,25 104.5,7.5 74.25,7.5 C41.5,7.5 17,26.25 9,59.25 L45.5,68.25 C49.5,55.5 59.25,44.75 72.5,44.75 C85.5,44.75 93,53.5 93,63.25 C93,73.25 87.25,80 79.5,87.75 L10.25,154.75 L10.25,188 L132.25,188 Z M276.5,188 L276.5,150.75 L211.75,150.75 L246,117.75 C262.75,101.75 274.75,87 274.75,61.25 C274.75,25 248.75,7.5 218.5,7.5 C185.75,7.5 161.25,26.25 153.25,59.25 L189.75,68.25 C193.75,55.5 203.5,44.75 216.75,44.75 C229.75,44.75 237.25,53.5 237.25,63.25 C237.25,73.25 231.5,80 223.75,87.75 L154.5,154.75 L154.5,188 L276.5,188 Z M367.75,190.75 C407.25,190.75 434.75,160.75 434.75,119.75 L434.75,78.5 C434.75,37.5 407.25,7.5 367.75,7.5 C327.75,7.5 300.5,37.5 300.5,78.5 L300.5,119.75 C300.5,160.75 327.75,190.75 367.75,190.75 Z M367.75,153.5 C350,153.5 338.25,141 338.25,119.75 L338.25,78.5 C338.25,57.25 350,44.75 367.75,44.75 C385,44.75 397,57.25 397,78.5 L397,119.75 C397,141 385,153.5 367.75,153.5 Z" id="path-2"></path>
    </defs>
    <g id="Daryo.uz" stroke="none" stroke-width="1" fill="none" fill-rule="evenodd">
        <g id="Daryo_spec_page-Copy" transform="translate(-90.000000, -368.000000)" fill-rule="nonzero">
            <g id="base_" transform="translate(0.000000, -20.000000)">
                <g id="text_220" transform="translate(90.000000, 388.000000)">
                    <path d="M132.25,193 L132.25,155.75 L67.5,155.75 L101.75,122.75 C118.5,106.75 130.5,92 130.5,66.25 C130.5,30 104.5,12.5 74.25,12.5 C41.5,12.5 17,31.25 9,64.25 L45.5,73.25 C49.5,60.5 59.25,49.75 72.5,49.75 C85.5,49.75 93,58.5 93,68.25 C93,78.25 87.25,85 79.5,92.75 L10.25,159.75 L10.25,193 L132.25,193 Z M276.5,193 L276.5,155.75 L211.75,155.75 L246,122.75 C262.75,106.75 274.75,92 274.75,66.25 C274.75,30 248.75,12.5 218.5,12.5 C185.75,12.5 161.25,31.25 153.25,64.25 L189.75,73.25 C193.75,60.5 203.5,49.75 216.75,49.75 C229.75,49.75 237.25,58.5 237.25,68.25 C237.25,78.25 231.5,85 223.75,92.75 L154.5,159.75 L154.5,193 L276.5,193 Z M367.75,195.75 C407.25,195.75 434.75,165.75 434.75,124.75 L434.75,83.5 C434.75,42.5 407.25,12.5 367.75,12.5 C327.75,12.5 300.5,42.5 300.5,83.5 L300.5,124.75 C300.5,165.75 327.75,195.75 367.75,195.75 Z M367.75,158.5 C350,158.5 338.25,146 338.25,124.75 L338.25,83.5 C338.25,62.25 350,49.75 367.75,49.75 C385,49.75 397,62.25 397,83.5 L397,124.75 C397,146 385,158.5 367.75,158.5 Z" id="220" fill="#00325D"></path>
                    <g id="220">
                        <use fill="#0C7AD6" xlink:href="#path-2"></use>
                        <use fill="url(#linearGradient-1)" xlink:href="#path-2"></use>
                    </g>
                </g>
            </g>
        </g>
    </g>
</svg>