<?xml version="1.0" encoding="UTF-8"?>
<svg width="19px" height="19px" viewBox="0 0 19 19" version="1.1" xmlns="http://www.w3.org/2000/svg" xmlns:xlink="http://www.w3.org/1999/xlink">
    <title>surface1</title>
    <g id="Page-1" stroke="none" stroke-width="1" fill="none" fill-rule="evenodd">
        <g id="Mobile_сщтефтсе" transform="translate(-155.000000, -854.000000)" fill="#FFFFFF" fill-rule="nonzero">
            <g id="footer" transform="translate(25.000000, 814.000000)">
                <g id="social" transform="translate(40.000000, 39.000000)">
                    <g id="instagram" transform="translate(90.000000, 1.000000)">
                        <path d="M5.27777778,0 C2.3629416,0 4.68760833e-16,2.3629416 4.68760833e-16,5.27777778 L4.68760833e-16,13.7222222 C4.68760833e-16,16.6370584 2.3629416,19 5.27777778,19 L13.7222222,19 C16.6370584,19 19,16.6370584 19,13.7222222 L19,5.27777778 C19,2.3629416 16.6370584,0 13.7222222,0 L5.27777778,0 Z M15.8333333,2.11111111 C16.4138889,2.11111111 16.8888889,2.58611111 16.8888889,3.16666667 C16.8888889,3.74722222 16.4138889,4.22222222 15.8333333,4.22222222 C15.2527778,4.22222222 14.7777778,3.74722222 14.7777778,3.16666667 C14.7777778,2.58611111 15.2527778,2.11111111 15.8333333,2.11111111 Z M9.5,4.22222222 C12.4148362,4.22222222 14.7777778,6.58516382 14.7777778,9.5 C14.7777778,12.4148362 12.4148362,14.7777778 9.5,14.7777778 C6.58516382,14.7777778 4.22222222,12.4148362 4.22222222,9.5 C4.22222222,6.58516382 6.58516382,4.22222222 9.5,4.22222222 L9.5,4.22222222 Z M9.5,6.33333315 C8.36828184,6.33371042 7.3227323,6.93782333 6.75719981,7.91810856 C6.19166731,8.8983938 6.19206968,10.1059227 6.75825536,11.0858308 C7.32444104,12.0657389 8.37039295,12.6691549 9.50211111,12.668778 C11.2515958,12.6681948 12.6693607,11.2494846 12.6687779,9.5 C12.6681947,7.75051535 11.2494846,6.3327504 9.5,6.33333315 Z" id="surface1"></path>
                    </g>
                </g>
            </g>
        </g>
    </g>
</svg>