<?xml version="1.0" encoding="UTF-8"?>
<svg width="23px" height="19px" viewBox="0 0 23 19" version="1.1" xmlns="http://www.w3.org/2000/svg" xmlns:xlink="http://www.w3.org/1999/xlink">
    <title>telegram-1</title>
    <g id="Page-1" stroke="none" stroke-width="1" fill="none" fill-rule="evenodd">
        <g id="Mobile_сщтефтсе" transform="translate(-65.000000, -854.000000)" fill="#FFFFFF">
            <g id="footer" transform="translate(25.000000, 814.000000)">
                <g id="social" transform="translate(40.000000, 39.000000)">
                    <g id="iconmonstr-telegram-1" transform="translate(0.000000, 1.000000)">
                        <path d="M17.4964966,18.79005 C17.8029517,19.00665 18.1979172,19.0608 18.5500552,18.9278 C18.9021931,18.79385 19.1610621,18.49365 19.2391034,18.1298 C20.0661517,14.25 22.0723862,4.42985 22.8252,0.9006 C22.8823034,0.6346 22.787131,0.35815 22.5777517,0.1805 C22.3683724,0.00285 22.0780966,-0.04845 21.8192276,0.0475 C17.8286483,1.5219 5.53903448,6.12465 0.515834483,7.98 C0.197006897,8.0978 -0.0104689655,8.4037 6.48876027e-14,8.73905 C0.0114206897,9.07535 0.237931034,9.367 0.564372414,9.46485 C2.81710345,10.13745 5.77411034,11.0732 5.77411034,11.0732 C5.77411034,11.0732 7.15601379,15.23895 7.87646897,17.35745 C7.96688276,17.62345 8.17531034,17.83245 8.45035862,17.90465 C8.72445517,17.9759 9.01758621,17.90085 9.2222069,17.708 C10.3795034,16.6174 12.1687448,14.93115 12.1687448,14.93115 C12.1687448,14.93115 15.5683034,17.4192 17.4964966,18.79005 Z M7.01801379,10.5469 L8.61595862,15.808 L8.97095172,12.47635 C8.97095172,12.47635 15.1447862,6.9179 18.6642621,3.74965 C18.7670483,3.65655 18.7813241,3.50075 18.695669,3.3915 C18.6109655,3.28225 18.4548828,3.2566 18.3378207,3.3307 C14.258731,5.93085 7.01801379,10.5469 7.01801379,10.5469 Z" id="telegram-1"></path>
                    </g>
                </g>
            </g>
        </g>
    </g>
</svg>